<?xml version="1.0" encoding="UTF-8"?>
<svg width="356px" height="347px" viewBox="0 0 356 347" version="1.1" xmlns="http://www.w3.org/2000/svg" xmlns:xlink="http://www.w3.org/1999/xlink">
    <!-- Generator: Sketch 55 (78076) - https://sketchapp.com -->
    <title>man final copy</title>
    <desc>Created with Sketch.</desc>
    <g id="Page-1" stroke="none" stroke-width="1" fill="none" fill-rule="evenodd">
        <g id="All-types-of-charapter" transform="translate(-2705.000000, -42.000000)" stroke="#050000" stroke-width="13">
            <g id="man-final-copy" transform="translate(2711.000000, 48.000000)">
                <path d="M56.5,334.246875 L56.5,0.565319293" id="Line-Copy" stroke-linecap="round"></path>
                <path d="M56.5,0.565319293 L272.629755,0.565319293" id="Line-2-Copy" stroke-linecap="round"></path>
                <path d="M272.629755,0.565319293 L272.629755,39" id="Line-5-Copy" stroke-linecap="round"></path>
                <path d="M56.5,76.5 L133.5,0.565319293" id="Line-3-Copy" stroke-linecap="round" stroke-linejoin="round"></path>
                <path d="M0.5,334.246875 L115.369361,334.246875" id="Line-4-Copy" stroke-linecap="round"></path>
                <circle id="Oval-Copy" fill="#FFFFFF" cx="253" cy="77" r="38"></circle>
                <path d="M272.629755,115 L272.629755,236.448234" id="Line-6-Copy" stroke-linecap="square"></path>
                <path d="M271,140.5 L199,154.578756" id="Line-7-Copy-3" stroke-linecap="round"></path>
                <path d="M343,140.039378 L271,154.118135" id="Line-7-Copy-2" stroke-linecap="round" transform="translate(307.000000, 147.039378) rotate(-337.936082) translate(-307.000000, -147.039378) "></path>
                <path d="M342.5,239.974117 L268.5,299.025883" id="Line-8-Copy-3" stroke-linecap="round" transform="translate(306.000000, 269.525883) rotate(-96.410243) translate(-306.000000, -269.525883) "></path>
                <path d="M276.5,239.974117 L202.5,299.025883" id="Line-8-Copy-2" stroke-linecap="round" transform="translate(240.000000, 269.525883) rotate(-186.410243) translate(-240.000000, -269.525883) "></path>
            </g>
        </g>
    </g>
</svg>